Coordinates
version=1
nRows=11
nColumns=36
inDegrees=yes

Units are S.I. units (second, meters, Newtons, ...)
If the header above contains a line with 'inDegrees', this indicates whether rotational values are in degrees (yes) or radians (no).

endheader
time	pelvis_tilt	pelvis_list	pelvis_rotation	pelvis_tx	pelvis_ty	pelvis_tz	hip_flexion_r	hip_adduction_r	hip_rotation_r	knee_angle_r	knee_angle_r_beta	ankle_angle_r	subtalar_angle_r	mtp_angle_r	hip_flexion_l	hip_adduction_l	hip_rotation_l	knee_angle_l	knee_angle_l_beta	ankle_angle_l	subtalar_angle_l	mtp_angle_l	lumbar_extension	lumbar_bending	lumbar_rotation	arm_flex_r	arm_add_r	arm_rot_r	elbow_flex_r	pro_sup_r	arm_flex_l	arm_add_l	arm_rot_l	elbow_flex_l	pro_sup_l
      0.00000000	     -2.37480465	     -1.10887728	     10.73584621	     -0.02482415	      0.93277939	     -0.20422413	     25.69358019	      0.78440778	     -4.78083604	      3.54526425	      0.06187653	     -5.53527871	     -5.80775960	     -5.33329878	    -11.79434034	      0.40761925	     -2.34879374	     11.28573165	      0.19697318	     18.66775634	      2.85060289	     -5.33329878	     -2.51805265	     -3.74018139	    -10.25607750	     -2.49064063	     -3.38385461	    -18.08298541	     29.97866523	     99.15458445	     18.55289558	     -8.95564388	     -5.22317569	     47.66540489	    104.08080014
      0.01000000	     -1.87426659	     -1.42823492	     10.89463097	     -0.01263632	      0.93339930	     -0.20375607	     24.90747528	      1.28978105	     -4.96470443	      4.19143952	      0.07315442	     -6.24973756	     -6.43886279	     -5.34747682	    -12.21528018	     -0.30471220	     -2.07008137	     12.76947301	      0.22286935	     18.05288481	      2.51999294	     -5.34747682	     -3.18547617	     -3.17676857	    -10.29497437	     -2.36033162	     -3.48936436	    -18.14699905	     29.52259804	     99.18101207	     18.53296044	     -8.62052543	     -5.25843258	     47.51187785	    104.13565510
      0.02000000	     -1.45737075	     -1.90387506	     11.15357734	     -0.00004244	      0.93396304	     -0.20343026	     24.07628325	      1.93536400	     -5.40098489	      4.50926568	      0.07870153	     -7.57765346	     -7.94110151	     -5.37260573	    -12.34679743	     -1.21928589	     -2.13217345	     14.57113438	      0.25431427	     17.20955853	      1.59311421	     -5.37260573	     -3.50630359	     -2.39229991	    -10.55326519	     -2.27404410	     -3.54680056	    -18.32291773	     29.00480144	     99.23404636	     18.21435158	     -8.32142510	     -5.45665367	     47.23416203	    104.21317888
      0.03000000	     -1.32216622	     -2.30686416	     11.20331585	      0.01254612	      0.93423755	     -0.20267082	     23.48254500	      2.65285410	     -4.04142121	      4.74279975	      0.08277747	    -10.62586589	    -12.10175548	     -5.48002394	    -12.28371369	     -1.86150150	     -1.39400883	     16.19080387	      0.28258284	     15.89147068	      0.08765122	     -5.48002394	     -3.53488740	     -1.78648957	    -10.72925062	     -2.16202049	     -3.59248584	    -18.61363239	     28.55142850	     99.58670378	     17.64386064	     -8.01392619	     -6.05044380	     47.17758509	    104.61087293
      0.04000000	     -0.94441627	     -2.77870042	     11.34625880	      0.02534691	      0.93498651	     -0.20202597	     22.80749660	      3.36014735	     -4.17867002	      5.43844695	      0.09491881	    -11.03796446	    -12.86019106	     -5.51125211	    -12.18963059	     -2.75817219	     -1.30539218	     18.29267403	      0.31926739	     14.70778612	     -0.58834949	     -5.51125211	     -3.81850889	     -1.04903859	    -10.81700543	     -2.14924410	     -3.66700303	    -18.74053704	     28.26507432	     99.65721160	     17.25368961	     -7.73582695	     -6.05567359	     46.81388259	    104.68502166
      0.05000000	     -0.69671708	     -3.19796391	     11.42048443	      0.03814517	      0.93573507	     -0.20113572	     22.25187484	      4.07747694	     -3.71661941	      6.13212239	      0.10702573	    -12.11852079	    -14.84232750	     -5.61433512	    -11.77975623	     -3.53234801	     -0.95455487	     20.68663904	      0.36104996	     12.99980291	     -1.76502184	     -5.61433512	     -3.93602297	     -0.42538484	    -10.81862809	     -2.13432743	     -3.66974180	    -19.00311978	     27.92845163	     99.91703908	     16.82453554	     -7.45822301	     -6.11054824	     46.32044571	    104.93336833
      0.06000000	     -0.22846578	     -3.64264562	     11.52431910	      0.05099267	      0.93690134	     -0.20025155	     21.48895288	      4.83780359	     -3.73572770	      6.94937698	      0.12128951	    -11.92865374	    -15.49460498	     -5.63524887	    -11.34998684	     -4.48450922	     -0.99121798	     23.46771044	      0.40958882	     11.33213965	     -2.22522426	     -5.63524887	     -4.32593715	      0.27605794	    -10.78524882	     -2.09308930	     -3.72071434	    -19.07874321	     27.68143063	     99.94755069	     16.42425268	     -7.16902084	     -6.06830516	     45.84788166	    104.94393626
      0.07000000	      0.11233450	     -4.13144811	     11.55193720	      0.06381863	      0.93796320	     -0.19912803	     20.90261457	      5.67319176	     -3.63125394	      7.84900416	      0.13699097	    -11.66722339	    -16.31005852	     -5.65803135	    -10.55127047	     -5.49294879	     -1.10186799	     26.56724786	      0.46368595	      9.26145420	     -2.76233379	     -5.65803135	     -4.53012572	      0.98098742	    -10.67870813	     -2.05681066	     -3.75317041	    -19.15114838	     27.41287052	     99.97972632	     15.97652944	     -6.90610175	     -5.96667520	     45.19470555	    104.94933766
      0.08000000	      0.23859821	     -4.60200657	     11.49259931	      0.07640962	      0.93879222	     -0.19780405	     20.59435715	      6.49099736	     -3.27921657	      8.85297798	      0.15451361	    -11.51261417	    -17.42721484	     -5.71066130	     -9.29386285	     -6.41146302	     -1.04350708	     29.95559402	      0.52282375	      6.63617653	     -3.68865066	     -5.71066130	     -4.46941989	      1.58887152	    -10.42653601	     -2.05508136	     -3.78170660	    -19.21267076	     27.14069164	    100.07800417	     15.58771263	     -6.68141722	     -5.59265545	     44.23021406	    105.02509757
      0.09000000	      0.65236980	     -5.12274999	     11.46992001	      0.08895366	      0.93997130	     -0.19646008	     19.84834667	      7.42457244	     -3.17911149	      9.59488683	      0.16746237	    -10.76885297	    -18.16977041	     -5.73415401	     -8.15876657	     -7.54383121	     -1.15168707	     33.52714758	      0.58515911	      4.02893941	     -4.07682875	     -5.73415401	     -4.80000063	      2.31830845	    -10.17661833	     -1.94984947	     -3.80491787	    -19.20693199	     26.96184605	    100.11614430	     15.19178600	     -6.44009032	     -5.37166339	     43.51960930	    105.04016606
      0.10000000	      0.87139810	     -5.66981078	     11.37373416	      0.10116705	      0.94082203	     -0.19498467	     19.33631944	      8.36000262	     -3.04710274	     10.35647397	      0.18075457	     -9.98820882	    -18.77032568	     -5.76022148	     -6.59378492	     -8.65256426	     -1.14171324	     37.32191948	      0.65139038	      1.01448504	     -4.64050123	     -5.76022148	     -4.88889520	      3.01265621	     -9.84936687	     -1.84799093	     -3.83874306	    -19.15571813	     26.79345965	    100.16379984	     14.84172087	     -6.22416494	     -5.02007435	     42.61915295	    105.06624865
